<?xml version="1.0" encoding="utf-8"?>
<!-- Generator: Adobe Illustrator 23.0.0, SVG Export Plug-In . SVG Version: 6.00 Build 0)  -->
<svg version="1.1" xmlns="http://www.w3.org/2000/svg" xmlns:xlink="http://www.w3.org/1999/xlink" x="0px" y="0px"
	 viewBox="0 0 1257.3 278.6" style="enable-background:new 0 0 1257.3 278.6;" xml:space="preserve">
<style type="text/css">
	.st0{display:none;}
	.st1{display:inline;fill:none;stroke:#949494;stroke-linecap:round;stroke-miterlimit:10;stroke-dasharray:2.9774;}
	.st2{fill:none;stroke:#949494;stroke-linecap:round;stroke-miterlimit:10;stroke-dasharray:2.9774;}
</style>
<g id="Layer_1" class="st0">
	<path class="st1" d="M0.5,264.1c40,15.5,127.5,33.5,219.2-50.9c0,0,165-174,246-196c83-22.5,216,19,312,121
		c0,0,77.7,87.6,158.4,51.1C1035,126.8,1075.6,89,1103.6,77c27-11.6,108.8-29.5,148.8-19.1"/>
</g>
<g id="Layer_2">
	<path class="st2" d="M0.6,257.7c0,0,124.6,78.6,255.3-73.5s261.4-272.1,458.6-97c51.5,45.7,140.9,165.4,258.4,95
		s164.4-142,283.9-120.5"/>
</g>
</svg>
