<?xml version="1.0" encoding="utf-8"?>
<!-- Generator: Adobe Illustrator 23.0.0, SVG Export Plug-In . SVG Version: 6.00 Build 0)  -->
<svg version="1.1" id="Layer_2" xmlns="http://www.w3.org/2000/svg" xmlns:xlink="http://www.w3.org/1999/xlink" x="0px" y="0px"
	 viewBox="0 0 341.9 239.1" style="enable-background:new 0 0 341.9 239.1;" xml:space="preserve">
<style type="text/css">
	.st0{fill:#FFFFFF;}
</style>
<g>
	<g>
		<path class="st0" d="M19.8,197.7c5.4,0,10.1,2,14.1,5.9c4,3.9,6,8.8,6,14.6c0,5.8-1.9,10.8-5.7,14.9c-3.8,4.1-8.5,6.1-14.1,6.1
			s-10.3-2-14.2-6.1c-3.9-4-5.9-8.8-5.9-14.4c0-3,0.5-5.9,1.7-8.6c1.1-2.7,2.6-4.9,4.4-6.7c1.8-1.8,3.9-3.2,6.3-4.2
			C14.8,198.2,17.2,197.7,19.8,197.7z M9.7,218.4c0,3.3,1.1,5.9,3.2,8c2.1,2,4.5,3.1,7.1,3.1c2.6,0,5-1,7-3c2.1-2,3.1-4.6,3.1-8
			s-1.1-6-3.2-8c-2.1-2-4.5-3-7.1-3c-2.6,0-5,1-7,3.1C10.8,212.5,9.7,215.1,9.7,218.4z"/>
		<path class="st0" d="M69.8,199.6c0.4-0.6,0.9-1,1.6-1.2c0.7-0.2,1.6-0.3,2.6-0.3c1,0,1.9,0.1,2.5,0.3c0.6,0.2,1.1,0.4,1.4,0.7
			c0.3,0.3,0.6,0.6,0.7,1.2c0.2,0.6,0.3,1.6,0.3,2.9v16.6c0,4.8-1.5,9.2-4.5,13.2c-1.5,1.9-3.4,3.4-5.7,4.5
			c-2.3,1.2-4.9,1.7-7.7,1.7c-2.8,0-5.4-0.6-7.6-1.8s-4.2-2.7-5.6-4.6c-3-3.9-4.5-8.3-4.5-13.2V203c0-0.9,0-1.5,0.1-2
			c0.1-0.4,0.2-0.9,0.5-1.5c0.3-0.6,0.8-0.9,1.5-1.2c0.7-0.2,1.6-0.3,2.8-0.3c1.2,0,2.1,0.1,2.8,0.3c0.7,0.2,1.2,0.6,1.4,1.2
			c0.4,0.8,0.7,2,0.7,3.5v16.5c0,2.2,0.6,4.4,1.7,6.4c0.5,1,1.4,1.9,2.5,2.5c1.1,0.6,2.4,0.9,3.9,0.9c2.7,0,4.7-1,6-3
			c1.3-2,2-4.3,2-6.9v-16.8C69.3,201.2,69.5,200.2,69.8,199.6z"/>
		<path class="st0" d="M114.3,231.7c0.6,1.3,0.8,2.3,0.8,2.9c0,1.4-1.1,2.6-3.4,3.5c-1.2,0.5-2.1,0.8-2.8,0.8
			c-0.7,0-1.3-0.2-1.8-0.5c-0.5-0.3-0.8-0.7-1-1.1c-0.4-0.7-1.8-4-4.3-10l-1.7,0.1h-6.9v6.2c0,0.8,0,1.5-0.1,1.9
			c-0.1,0.4-0.2,0.9-0.5,1.5c-0.5,1-1.9,1.5-4.3,1.5c-2.6,0-4.1-0.7-4.5-2c-0.2-0.6-0.3-1.6-0.3-2.9V203c0-0.8,0-1.5,0.1-1.9
			c0.1-0.4,0.2-0.9,0.5-1.5c0.5-1,1.9-1.5,4.3-1.5h11.9c3.2,0,6.4,1.2,9.4,3.5c1.5,1.1,2.7,2.7,3.6,4.6c1,1.9,1.4,4.1,1.4,6.5
			c0,4.1-1.4,7.6-4.1,10.2C111.4,225,112.6,227.8,114.3,231.7z M93.2,217.6h7c1.1,0,2.1-0.4,3.2-1.2c1.1-0.8,1.6-2,1.6-3.6
			s-0.5-2.8-1.6-3.7c-1.1-0.8-2.2-1.2-3.3-1.2h-6.9V217.6z"/>
		<path class="st0" d="M138.6,214.2h9.7c2,0.1,3.2,0.6,3.6,1.5c0.4,0.7,0.5,1.7,0.5,3.1v12.1c0,1.2-0.5,2.3-1.5,3.4
			c-3.1,3.2-7.7,4.8-13.9,4.8c-5.5,0-10.2-2.1-14.3-6.2c-4-4.1-6.1-9.1-6.1-14.9s2.1-10.7,6.2-14.6c4.1-3.9,9-5.9,14.5-5.9
			c4.3,0,8.4,1.4,12.3,4.3c1,0.7,1.5,1.6,1.5,2.4s-0.4,1.9-1.3,3.1c-1.4,1.9-2.7,2.9-3.9,2.9c-0.7,0-1.8-0.5-3.4-1.5
			c-1.5-1-3.4-1.5-5.5-1.5c-2.8,0-5.3,1-7.4,2.9c-2.2,2-3.2,4.5-3.2,7.7c0,3.2,1.1,5.9,3.3,8.1c2.2,2.2,4.7,3.3,7.5,3.3
			c2,0,3.8-0.3,5.4-1v-6h-4.3c-1.1,0-1.9-0.1-2.4-0.4c-0.5-0.3-0.8-0.7-0.9-1.3c-0.1-0.6-0.2-1.3-0.2-2.3c0-1,0.1-1.8,0.2-2.3
			c0.2-0.6,0.5-1,0.9-1.2C136.6,214.3,137.5,214.2,138.6,214.2z"/>
		<path class="st0" d="M183.2,199.6c0.4-0.6,0.9-1,1.6-1.2c0.7-0.2,1.6-0.3,2.6-0.3c1,0,1.9,0.1,2.5,0.3c0.6,0.2,1.1,0.4,1.4,0.7
			c0.3,0.3,0.6,0.6,0.7,1.2c0.2,0.6,0.3,1.6,0.3,2.9v16.6c0,4.8-1.5,9.2-4.5,13.2c-1.5,1.9-3.4,3.4-5.7,4.5
			c-2.3,1.2-4.9,1.7-7.7,1.7c-2.8,0-5.4-0.6-7.6-1.8c-2.3-1.2-4.2-2.7-5.6-4.6c-3-3.9-4.5-8.3-4.5-13.2V203c0-0.9,0-1.5,0.1-2
			c0.1-0.4,0.2-0.9,0.5-1.5c0.3-0.6,0.8-0.9,1.5-1.2c0.7-0.2,1.6-0.3,2.8-0.3c1.2,0,2.1,0.1,2.8,0.3c0.7,0.2,1.2,0.6,1.4,1.2
			c0.4,0.8,0.7,2,0.7,3.5v16.5c0,2.2,0.6,4.4,1.7,6.4c0.5,1,1.4,1.9,2.5,2.5c1.1,0.6,2.4,0.9,3.9,0.9c2.7,0,4.7-1,6-3
			c1.3-2,2-4.3,2-6.9v-16.8C182.7,201.2,182.9,200.2,183.2,199.6z"/>
		<path class="st0" d="M206.6,228.7h16.9c0.8,0,1.5,0,1.9,0.1c0.4,0.1,0.9,0.2,1.5,0.5c1,0.5,1.5,1.9,1.5,4.3c0,2.6-0.7,4.1-2,4.5
			c-0.6,0.2-1.6,0.3-2.9,0.3h-21.8c-2.6,0-4.1-0.7-4.5-2.1c-0.2-0.6-0.3-1.5-0.3-2.8V203c0-1.9,0.3-3.1,1-3.8c0.7-0.7,2-1,4-1h21.7
			c0.8,0,1.5,0,1.9,0.1c0.4,0.1,0.9,0.2,1.5,0.5c1,0.5,1.5,1.9,1.5,4.3c0,2.6-0.7,4.1-2,4.5c-0.6,0.2-1.6,0.3-2.9,0.3h-16.9v5.6
			h10.9c0.8,0,1.5,0,1.9,0.1c0.4,0.1,0.9,0.2,1.5,0.5c1,0.5,1.5,1.9,1.5,4.3c0,2.6-0.7,4.1-2.1,4.5c-0.6,0.2-1.6,0.3-2.9,0.3h-10.8
			V228.7z"/>
		<path class="st0" d="M232.5,232.8c-1-1.2-1.4-2.2-1.4-3.2c0-0.9,0.8-2.2,2.4-3.7c0.9-0.9,1.9-1.3,2.9-1.3s2.5,0.9,4.3,2.8
			c0.5,0.6,1.2,1.2,2.2,1.8s1.8,0.9,2.6,0.9c3.4,0,5.1-1.4,5.1-4.2c0-0.8-0.5-1.5-1.4-2.1c-0.9-0.6-2.1-1-3.5-1.2
			c-1.4-0.3-2.9-0.7-4.5-1.2c-1.6-0.6-3.1-1.2-4.5-2c-1.4-0.8-2.6-2-3.5-3.7c-0.9-1.7-1.4-3.7-1.4-6c0-3.2,1.2-6,3.6-8.4
			c2.4-2.4,5.7-3.6,9.8-3.6c2.2,0,4.2,0.3,6,0.9c1.8,0.6,3.1,1.1,3.8,1.7l1.4,1c1.1,1.1,1.7,2,1.7,2.7c0,0.7-0.4,1.7-1.3,3
			c-1.2,1.8-2.5,2.8-3.9,2.8c-0.8,0-1.7-0.4-2.9-1.1c-0.1-0.1-0.3-0.3-0.6-0.5c-0.3-0.3-0.6-0.5-0.9-0.7c-0.8-0.5-1.8-0.7-2.9-0.7
			c-1.2,0-2.2,0.3-3,0.9s-1.2,1.4-1.2,2.4c0,1,0.5,1.8,1.4,2.4c0.9,0.6,2.1,1,3.5,1.3c1.4,0.2,2.9,0.6,4.6,1c1.7,0.5,3.2,1,4.6,1.7
			c1.4,0.7,2.6,1.8,3.5,3.4c0.9,1.6,1.4,3.6,1.4,6c0,2.4-0.5,4.5-1.4,6.3c-1,1.8-2.2,3.2-3.7,4.2c-3,1.9-6.1,2.9-9.5,2.9
			c-1.7,0-3.4-0.2-4.9-0.6c-1.5-0.4-2.8-0.9-3.7-1.6c-1.9-1.2-3.3-2.3-4.1-3.4L232.5,232.8z"/>
		<path class="st0" d="M263.9,198.1h30.6c1.2,0,2,0.1,2.6,0.4s0.9,0.7,1.1,1.3c0.2,0.6,0.3,1.4,0.3,2.3s-0.1,1.7-0.3,2.3
			c-0.2,0.6-0.5,1-0.9,1.2c-0.7,0.3-1.6,0.5-2.8,0.5h-10.5v27.7c0,0.8,0,1.5-0.1,1.9c-0.1,0.4-0.2,0.9-0.5,1.4
			c-0.3,0.5-0.8,0.9-1.5,1.1c-0.7,0.2-1.6,0.3-2.8,0.3c-1.1,0-2-0.1-2.7-0.3c-0.7-0.2-1.2-0.6-1.4-1.1c-0.3-0.5-0.4-1-0.5-1.4
			c-0.1-0.4-0.1-1.1-0.1-1.9v-27.6h-10.6c-1.2,0-2-0.1-2.6-0.4s-0.9-0.7-1.1-1.3c-0.2-0.6-0.3-1.4-0.3-2.3c0-1,0.1-1.7,0.3-2.3
			c0.2-0.6,0.5-1,0.9-1.2C261.8,198.3,262.7,198.1,263.9,198.1z"/>
	</g>
	<g>
		<path class="st0" d="M301.7,231.7c0.5,0.5,0.7,1.4,0.7,2.9v0.2c0,0.7,0,1.1-0.1,1.5c0,0.3-0.2,0.7-0.4,1.1
			c-0.4,0.8-1.5,1.2-3.1,1.2c-1.7,0-2.8-0.3-3.3-0.8c-0.5-0.5-0.8-1.5-0.8-3v-0.2c0-0.6,0-1.1,0.1-1.4c0-0.3,0.2-0.7,0.4-1.1
			c0.4-0.8,1.5-1.2,3.1-1.2S301,231.1,301.7,231.7z"/>
		<path class="st0" d="M316.4,212.7c-0.2,0.4-0.6,0.7-1.1,0.8c-0.5,0.2-1.2,0.2-2.1,0.2s-1.6-0.1-2.1-0.2c-0.5-0.2-0.9-0.5-1.1-0.9
			c-0.2-0.4-0.3-0.8-0.4-1.1c0-0.3-0.1-0.8-0.1-1.4c0-0.6,0-1.1,0.1-1.4c0-0.3,0.2-0.7,0.4-1.1c0.4-0.7,1.5-1.1,3.2-1.1
			c1.7,0,2.8,0.4,3.1,1.1c0.2,0.4,0.4,0.8,0.4,1.1c0,0.3,0.1,0.8,0.1,1.4c0,0.6,0,1.1-0.1,1.4C316.8,212,316.6,212.3,316.4,212.7z
			 M309.6,220.4c0-0.6,0-1.1,0.1-1.4c0-0.3,0.2-0.7,0.4-1.1c0.4-0.7,1.5-1.1,3.2-1.1c1.3,0,2.3,0.2,2.8,0.7c0.5,0.4,0.7,1,0.7,1.8
			c0,0.3,0,0.7,0,1.2v14.4c0,0.6,0,1.1-0.1,1.4c0,0.3-0.2,0.7-0.4,1.1c-0.4,0.7-1.4,1.1-3.2,1.1c-1.7,0-2.8-0.4-3.2-1.1
			c-0.2-0.4-0.3-0.8-0.4-1.1c0-0.3-0.1-0.8-0.1-1.4V220.4z"/>
		<path class="st0" d="M332.3,216.7c2.8,0,5,1.1,6.9,3.2c1.8,2.1,2.7,4.7,2.7,7.7v7.3c0,0.6,0,1.1-0.1,1.4c0,0.3-0.2,0.7-0.4,1.1
			c-0.4,0.7-1.5,1.1-3.2,1.1c-2,0-3.1-0.5-3.4-1.5c-0.2-0.5-0.2-1.2-0.2-2.1v-7.3c0-1.1-0.3-2-1-2.6c-0.6-0.6-1.5-0.9-2.6-0.9
			s-2,0.3-2.6,1c-0.7,0.7-1,1.5-1,2.6v7.3c0,0.6,0,1.1-0.1,1.4c0,0.3-0.2,0.7-0.4,1.1c-0.4,0.7-1.4,1.1-3.2,1.1
			c-1.7,0-2.8-0.4-3.2-1.1c-0.2-0.4-0.3-0.8-0.4-1.1c0-0.3-0.1-0.8-0.1-1.4v-14.6c0-0.6,0-1.1,0.1-1.4c0-0.3,0.2-0.7,0.4-1.1
			c0.4-0.7,1.4-1,3.2-1c1.7,0,2.7,0.3,3.1,0.9c0.3,0.5,0.4,1,0.4,1.7c0.1-0.2,0.4-0.5,0.7-0.8c0.4-0.4,0.8-0.6,1.1-0.9
			C330.1,217.1,331.1,216.7,332.3,216.7z"/>
	</g>
	<g>
		<path class="st0" d="M165,105.5c29.1,0,52.7-23.7,52.7-52.7S194.1,0,165,0s-52.7,23.7-52.7,52.7S135.9,105.5,165,105.5z M165,22.9
			c16.4,0,29.8,13.4,29.8,29.8S181.4,82.5,165,82.5s-29.8-13.4-29.8-29.8S148.6,22.9,165,22.9z"/>
		<path class="st0" d="M209.6,121.4c-3.4-3.4-8.5-4.3-12.9-2.3c-9.7,4.5-20.4,7-31.8,7c-11.3,0-22.1-2.5-31.8-7
			c-4.3-2-9.5-1.1-12.9,2.3l0,0c-5.6,5.6-3.9,15.2,3.3,18.5c12.6,5.8,26.6,9.1,41.3,9.1s28.8-3.3,41.3-9.1
			C213.6,136.6,215.3,127,209.6,121.4L209.6,121.4z"/>
	</g>
</g>
</svg>
