<svg width="32" height="22" viewBox="0 0 32 22" fill="none" xmlns="http://www.w3.org/2000/svg">
<g clip-path="url(#clip0_215_2)">
<path fill-rule="evenodd" clip-rule="evenodd" d="M10.2 21.7L0.299999 11.7C-0.100001 11.3 -0.100001 10.7 0.299999 10.3L10.2 0.3C10.6 -0.1 11.2 -0.1 11.6 0.3C12 0.7 12 1.3 11.6 1.7L3.4 10H31C31.6 10 32 10.5 32 11C32 11.5 31.6 12 31 12H3.4L11.6 20.3C12 20.7 12 21.3 11.6 21.7C11.2 22.1 10.6 22.1 10.2 21.7Z" fill="#51C170"/>
</g>
<defs>
<clipPath id="clip0_215_2">
<rect width="32" height="22" fill="white" transform="matrix(-1 0 0 1 32 0)"/>
</clipPath>
</defs>
</svg>
