<svg width="64" height="64" viewBox="0 0 64 64" fill="none" xmlns="http://www.w3.org/2000/svg">
<g clip-path="url(#clip0_225_5)">
<path d="M36.2813 2.15892C36.2813 0.970182 37.4271 0 38.8542 0C40.2813 0 41.4271 0.964851 41.4271 2.15892V11.6049C41.4271 12.7936 40.2813 13.7638 38.8542 13.7638C37.4271 13.7638 36.2813 12.7989 36.2813 11.6049V2.15892ZM47.5885 30.4008C49.8073 30.4008 51.9271 30.8539 53.8646 31.6748C55.8802 32.5277 57.6875 33.7751 59.1979 35.321C60.7083 36.8669 61.9271 38.722 62.7604 40.7743C63.5625 42.7573 64.0052 44.9269 64.0052 47.1977C64.0052 49.4686 63.5625 51.6382 62.7604 53.6212C61.9271 55.6842 60.7083 57.5339 59.1979 59.0798C57.6875 60.6257 55.875 61.8731 53.8698 62.726C51.9323 63.5469 49.8125 64 47.5938 64C45.375 64 43.2552 63.5469 41.3177 62.726C39.3021 61.8731 37.4948 60.6257 35.9844 59.0798C34.474 57.5339 33.2552 55.6788 32.4219 53.6212C31.6198 51.6382 31.1771 49.4686 31.1771 47.1977C31.1771 44.9269 31.6198 42.7573 32.4219 40.7743C33.2552 38.7113 34.474 36.8616 35.9844 35.3157C37.4948 33.7698 39.3073 32.5224 41.3125 31.6695C43.25 30.8539 45.3646 30.4008 47.5885 30.4008ZM46.3594 40.1772C46.3594 39.7721 46.5208 39.4043 46.7813 39.1378C47.0417 38.8712 47.401 38.706 47.8021 38.706C48.2031 38.706 48.5625 38.8712 48.8229 39.1378C49.0833 39.4043 49.2448 39.7721 49.2448 40.1826V48.04L54.9844 51.5262L55.0313 51.5582C55.349 51.7661 55.5573 52.0806 55.6406 52.4271C55.7292 52.7896 55.6875 53.1841 55.4948 53.5252L55.4844 53.5412C55.474 53.5626 55.4635 53.5785 55.4479 53.5945C55.2448 53.9144 54.9375 54.1276 54.6042 54.2129C54.25 54.3035 53.8646 54.2609 53.5313 54.0636L47.1146 50.1776C46.8906 50.055 46.7031 49.8684 46.5677 49.6498C46.4323 49.426 46.3542 49.1648 46.3542 48.8876L46.3594 40.1772ZM57.1615 37.4C55.9115 36.1206 54.4219 35.0918 52.7708 34.3935C51.1771 33.7165 49.4271 33.3487 47.5885 33.3487C45.75 33.3487 44 33.7218 42.4063 34.3935C40.7552 35.0918 39.2656 36.1206 38.0156 37.4C36.7656 38.6793 35.7604 40.2039 35.0781 41.8937C34.4167 43.5249 34.0573 45.316 34.0573 47.1977C34.0573 49.0795 34.4219 50.8706 35.0781 52.5017C35.7604 54.1916 36.7656 55.7161 38.0156 56.9955C39.2656 58.2749 40.7552 59.3037 42.4063 60.002C44 60.679 45.75 61.0468 47.5885 61.0468C49.4271 61.0468 51.1771 60.6737 52.7708 60.002C54.4219 59.3037 55.9115 58.2749 57.1615 56.9955C59.6146 54.4848 61.125 51.0252 61.125 47.1977C61.125 45.316 60.7604 43.5249 60.1042 41.8937C59.4167 40.2039 58.4115 38.6793 57.1615 37.4ZM7.00521 30.5767C6.85938 30.5767 6.72917 29.921 6.72917 29.1161C6.72917 28.3112 6.84375 27.6608 7.00521 27.6608H14.026C14.1719 27.6608 14.3021 28.3165 14.3021 29.1161C14.3021 29.921 14.1875 30.5767 14.026 30.5767H7.00521ZM18.1979 30.5767C18.0521 30.5767 17.9219 29.921 17.9219 29.1161C17.9219 28.3112 18.0365 27.6608 18.1979 27.6608H25.2188C25.3646 27.6608 25.4948 28.3165 25.4948 29.1161C25.4948 29.921 25.3802 30.5767 25.2188 30.5767H18.1979ZM29.3906 30.5767C29.2448 30.5767 29.1146 29.921 29.1146 29.1161C29.1146 28.3112 29.2292 27.6608 29.3906 27.6608H36.4115C36.5573 27.6608 36.6875 28.3112 36.6875 29.1108C35.9844 29.5586 35.3073 30.049 34.6615 30.5767H29.3906ZM7.02083 38.9352C6.875 38.9352 6.74479 38.2795 6.74479 37.4746C6.74479 36.6697 6.85938 36.014 7.02083 36.014H14.0417C14.1875 36.014 14.3177 36.6697 14.3177 37.4746C14.3177 38.2795 14.2031 38.9352 14.0417 38.9352H7.02083ZM18.2135 38.9352C18.0677 38.9352 17.9375 38.2795 17.9375 37.4746C17.9375 36.6697 18.0521 36.014 18.2135 36.014H25.2344C25.3802 36.014 25.5104 36.6697 25.5104 37.4746C25.5104 38.2795 25.3958 38.9352 25.2344 38.9352H18.2135ZM7.03646 47.299C6.89063 47.299 6.76042 46.6433 6.76042 45.8384C6.76042 45.0335 6.875 44.3778 7.03646 44.3778H14.0573C14.2031 44.3778 14.3333 45.0335 14.3333 45.8384C14.3333 46.6433 14.2188 47.299 14.0573 47.299H7.03646ZM18.2292 47.299C18.0833 47.299 17.9531 46.6433 17.9531 45.8384C17.9531 45.0335 18.0677 44.3778 18.2292 44.3778H25.25C25.3958 44.3778 25.526 45.0335 25.526 45.8384C25.526 46.6433 25.4115 47.299 25.25 47.299H18.2292ZM13.1719 2.15892C13.1719 0.970182 14.3177 0 15.7448 0C17.1719 0 18.3177 0.964851 18.3177 2.15892V11.6049C18.3177 12.7936 17.1667 13.7638 15.7448 13.7638C14.3177 13.7638 13.1719 12.7989 13.1719 11.6049V2.15892ZM2.83333 20.651H51.8333V9.77645C51.8333 9.4033 51.6875 9.07813 51.4531 8.83825C51.2188 8.59837 50.8854 8.44911 50.5365 8.44911H45.8385C45.0521 8.44911 44.4115 7.79344 44.4115 6.98851C44.4115 6.18357 45.0521 5.5279 45.8385 5.5279H50.5365C51.6875 5.5279 52.7188 6.00233 53.474 6.77528C54.2292 7.54823 54.6927 8.6037 54.6927 9.78178V27.0478C53.7552 26.7173 52.7917 26.4508 51.8021 26.2535V23.5562H51.8333H2.83333V51.7181C2.83333 52.0913 2.97917 52.4165 3.21354 52.6563C3.44792 52.8962 3.78125 53.0455 4.13021 53.0455H27.4167C27.6823 54.0583 28.0156 55.0445 28.4167 55.9933H4.15625C3.01042 55.9933 1.97396 55.5189 1.21875 54.746C0.463542 53.9783 0 52.9229 0 51.7448V9.78711C0 8.61436 0.463542 7.55356 1.21875 6.78061C1.97396 6.00766 3.00521 5.53323 4.15625 5.53323H9.17188C9.95833 5.53323 10.599 6.18891 10.599 6.99384C10.599 7.79877 9.95833 8.45444 9.17188 8.45444H4.15625C3.79167 8.45444 3.47396 8.6037 3.23958 8.84358C3.00521 9.08346 2.85938 9.42462 2.85938 9.78178V20.6563H2.83333V20.651ZM22.4323 8.44911C21.6458 8.44911 21.0052 7.79344 21.0052 6.98851C21.0052 6.18357 21.6458 5.5279 22.4323 5.5279H31.9948C32.7813 5.5279 33.4219 6.18357 33.4219 6.98851C33.4219 7.79344 32.7813 8.44911 31.9948 8.44911H22.4323Z" fill="#3BBC2A"/>
</g>
<defs>
<clipPath id="clip0_225_5">
<rect width="64" height="64" fill="white"/>
</clipPath>
</defs>
</svg>
