<?xml version="1.0" encoding="utf-8"?>
<!-- Generator: Adobe Illustrator 23.0.0, SVG Export Plug-In . SVG Version: 6.00 Build 0)  -->
<svg version="1.1" id="Layer_1" xmlns="http://www.w3.org/2000/svg" xmlns:xlink="http://www.w3.org/1999/xlink" x="0px" y="0px"
	 viewBox="0 0 43.5 38.4" style="enable-background:new 0 0 43.5 38.4;" xml:space="preserve">
<style type="text/css">
	.st0{fill:#51A546;}
	.st1{fill:#3BBC2A;}
</style>
<path class="st0" d="M20.6,24c2.6-1.7,4.3-4.7,4.3-8c0-5.3-4.3-9.6-9.6-9.6S5.8,10.7,5.8,16c0,3.3,1.7,6.3,4.3,8
	C4.2,26.1,0,31.8,0,38.4h2.6c0-7.1,5.7-12.8,12.8-12.8s12.8,5.7,12.8,12.8h2.6C30.7,31.8,26.5,26.1,20.6,24z M15.3,23
	c-3.9,0-7-3.2-7-7s3.2-7,7-7s7,3.2,7,7S19.2,23,15.3,23z"/>
<path class="st1" d="M33.4,17.6c2.6-1.7,4.3-4.7,4.3-8c0-5.3-4.3-9.6-9.6-9.6c-2.6,0-4.9,1-6.6,2.7c-0.6,0.6-1.2,1.3-1.6,2.1
	c0.8,0.3,1.6,0.7,2.3,1.2c0.5-0.7,1-1.4,1.7-1.9c1.2-0.9,2.7-1.5,4.3-1.5c3.9,0,7,3.2,7,7c0,3.2-2.2,5.9-5.1,6.8
	c-0.6,0.2-1.2,0.3-1.9,0.3c-0.2,0-0.4,0-0.7,0c0,0.9-0.2,1.8-0.4,2.7c0.4,0,0.7-0.1,1.1-0.1c0.5,0,1,0,1.5,0.1
	C36,20,40.9,25.4,40.9,32h2.6C43.5,25.4,39.3,19.7,33.4,17.6z"/>
</svg>
