<svg width="60" height="60" viewBox="0 0 60 60" fill="none" xmlns="http://www.w3.org/2000/svg">
<path fill-rule="evenodd" clip-rule="evenodd" d="M45 34.1267C45 30.3394 42.0557 27.3298 38.7771 27.3298C36.2721 27.3298 34.0574 27.3298 32.5861 30.5C32.3144 31.0853 32 32.7895 32 33.6324V50H24.0413V29.2103V18.9559H32.3057L32.7134 23H32.8918C34.0851 21.0784 36.7969 18.9559 41.6895 18.9559C47.6536 18.9559 53 23.6766 53 32.3298V50H45V34.1267ZM13.3253 15.2665C10.7215 15.2665 9.04126 13.4241 9.04126 11.1475C9.04126 8.81564 10.7759 7.0257 13.4322 7.0257C16.0884 7.0257 17.7162 8.81469 17.7706 11.1475C17.7715 13.4241 16.0894 15.2665 13.3253 15.2665ZM10 50L10 18.9559H16.9882L16.9882 50H10Z" stroke="#0E76A8" stroke-width="2"/>
</svg>
