<?xml version="1.0" encoding="utf-8"?>
<!-- Generator: Adobe Illustrator 23.0.0, SVG Export Plug-In . SVG Version: 6.00 Build 0)  -->
<svg version="1.1" id="Capa_1" xmlns="http://www.w3.org/2000/svg" xmlns:xlink="http://www.w3.org/1999/xlink" x="0px" y="0px"
	 viewBox="0 0 410.2 512" style="enable-background:new 0 0 410.2 512;" xml:space="preserve">
<g>
	<g>
		<path d="M205.1,110.1c-52.4,0-95.1,42.6-95.1,95.1s42.6,95.1,95.1,95.1s95.1-42.6,95.1-95.1S257.5,110.1,205.1,110.1z
			 M205.1,260.1c-30.3,0-55-24.7-55-55s24.7-55,55-55s55,24.7,55,55S235.5,260.1,205.1,260.1z"/>
	</g>
</g>
<g>
	<g>
		<path d="M205.1,0C92,0,0,92,0,205.1v5.7C0,268,32.8,334.6,97.5,408.9c46.9,53.8,93.1,91.4,95.1,92.9l12.6,10.2l12.6-10.2
			c1.9-1.6,48.2-39.1,95.1-92.9c64.7-74.3,97.5-140.9,97.5-198.1v-5.7C410.2,92,318.2,0,205.1,0z M370.2,210.8
			c0,96.7-124.6,213.7-165.1,249.2C164.6,424.5,40,307.4,40,210.8v-5.7C40,114.1,114.1,40,205.1,40s165.1,74.1,165.1,165.1
			L370.2,210.8L370.2,210.8z"/>
	</g>
</g>
</svg>
