<?xml version="1.0" encoding="utf-8"?>
<!-- Generator: Adobe Illustrator 23.0.0, SVG Export Plug-In . SVG Version: 6.00 Build 0)  -->
<svg version="1.1" id="Layer_1" xmlns="http://www.w3.org/2000/svg" xmlns:xlink="http://www.w3.org/1999/xlink" x="0px" y="0px"
	 viewBox="0 0 444 402.5" style="enable-background:new 0 0 444 402.5;" xml:space="preserve">
<style type="text/css">
	.st0{stroke:#000000;stroke-width:5;stroke-miterlimit:10;}
</style>
<path class="st0" d="M50.6,152l0.6,0.6h1.1h1.1l80.1-22.4c1.7-0.6,2.2-2.2,2.2-3.4c-0.6-1.7-2.2-2.2-3.4-2.2l-74.5,21.8
	C88.1,43.9,195.6-14.3,298.1,15.9s160.7,137.8,130.5,240.2c-31.4,102.5-138.9,160.7-240.8,130.5c-82.3-24.1-138.3-99.7-138.3-185.4
	c0-1.7-1.1-2.8-2.8-2.8s-2.8,1.1-2.8,2.8c0,109.8,89,198.8,198.8,198.8s198.8-89,198.8-198.8S352.4,2.5,242.6,2.5
	C155.3,2.5,78,60.2,52.2,143.6L8,73.6c-0.6-1.1-2.2-1.7-3.9-1.1C3,73.1,1.9,74.7,3,76.4c0,0,0,0.6,0.6,0.6L50.6,152z"/>
</svg>
