<svg width="406" height="412" viewBox="0 0 406 412" fill="none" xmlns="http://www.w3.org/2000/svg">
<g clip-path="url(#clip0_216_8)">
<path d="M14.7 29.1C19.1 28.6 23.1 31.5 24.1 35.7L24.4 36.9L30.4 88.6C57.2 50 96.3 21.7 141.4 8.40001C186.5 -4.89999 234.7 -2.39998 278.1 15.6C321.5 33.5 357.5 65.8 380 107C402.5 148.2 410.3 195.9 401.9 242.1C393.6 288.3 369.6 330.3 334.1 361.1C298.6 391.8 253.6 409.5 206.7 411.1C159.8 412.7 113.7 398.2 76.1 370C38.5 341.8 11.8 301.6 0.199997 256.1C-1 251.4 1.8 246.7 6.5 245.5C11.2 244.3 15.9 247.1 17.1 251.8C27.7 293.7 52.4 330.6 87 356.4C121.6 382.2 164.1 395.4 207.2 393.6C250.4 391.9 291.6 375.3 324 346.8C356.4 318.3 378 279.4 385.2 236.8C392.4 194.2 384.7 150.5 363.4 112.9C342.1 75.3 308.6 46.2 268.4 30.4C228.2 14.6 183.8 13.1 142.6 26.2C101.4 39.3 66 66.1 42.3 102.2L103 89.7C107.6 88.8 112.1 91.6 113.2 96.1L113.3 96.5C114.2 101.1 111.4 105.6 106.9 106.7L27 123.4L26.6 123.5C26.2 123.4 25.7 123.3 25.2 123.4L23.8 123.7C23.6 123.8 23.4 123.9 23.1 123.9C22.7 123.8 22.3 123.7 21.9 123.5C21.9 123.5 21.4 123.6 21 123.3L20.2 122.8L19.5 122.1L18.4 121.1L17.3 116.7L8.2 39.7C7.3 34.9 10.1 30.3 14.7 29.1Z" fill="#3BBC2A"/>
</g>
<defs>
<clipPath id="clip0_216_8">
<rect width="405.2" height="411.3" fill="white"/>
</clipPath>
</defs>
</svg>
