<?xml version="1.0" encoding="utf-8"?>
<!-- Generator: Adobe Illustrator 23.0.0, SVG Export Plug-In . SVG Version: 6.00 Build 0)  -->
<svg version="1.1" id="Layer_1" xmlns="http://www.w3.org/2000/svg" xmlns:xlink="http://www.w3.org/1999/xlink" x="0px" y="0px"
	 viewBox="0 0 420 420" style="enable-background:new 0 0 420 420;" xml:space="preserve">
<path d="M210,0c-34.8-0.1-69,8.5-99.5,25.1C79.9,41.6,53.9,65.6,35,94.7v-48H0v116.7l116.7,0v-35H55.6
	c20.1-37.6,53.2-66.5,93.1-81.4c39.9-14.8,83.9-14.6,123.6,0.8c39.7,15.4,72.5,44.7,92.1,82.5c19.6,37.8,24.7,81.5,14.2,122.8
	c-10.4,41.3-35.6,77.4-70.7,101.4c-35.2,24-77.9,34.4-120.2,29.1c-42.3-5.3-81.1-25.9-109.3-57.9C50.3,293.8,34.9,252.6,35,210H0
	c0,55.7,22.1,109.1,61.5,148.5C100.9,397.9,154.3,420,210,420s109.1-22.1,148.5-61.5C397.9,319.1,420,265.7,420,210
	s-22.1-109.1-61.5-148.5C319.1,22.1,265.7,0,210,0L210,0z"/>
</svg>
