<?xml version="1.0" encoding="UTF-8" standalone="no"?> <svg width="64" height="64" viewBox="0 0 64 64" fill="none" xmlns="http://www.w3.org/2000/svg">
<path d="M53 38.94V15.06C52.9974 13.1884 52.2527 11.3942 50.9293 10.0708C49.6058 8.74732 47.8116 8.00265 45.94 8.00001H44C43.9211 6.65129 43.3311 5.38334 42.3502 4.45439C41.3692 3.52544 40.071 3.00534 38.72 3.00001H25.31C23.9538 2.99769 22.6481 3.51439 21.6607 4.44411C20.6734 5.37384 20.0792 6.64612 20 8.00001H18C16.1388 8.01843 14.36 8.77006 13.0495 10.0918C11.739 11.4135 11.0025 13.1987 11 15.06V38.94C11.0026 40.8116 11.7473 42.6058 13.0707 43.9293C14.3942 45.2527 16.1884 45.9974 18.06 46H19.23L11.14 59.49C11.0048 59.7181 10.9657 59.9906 11.0313 60.2475C11.097 60.5044 11.2619 60.7247 11.49 60.86C11.6444 60.9516 11.8205 61 12 61C12.1735 61 12.3441 60.9548 12.4949 60.8689C12.6457 60.783 12.7715 60.6593 12.86 60.51L15 57H49L51.11 60.51C51.201 60.6637 51.3316 60.7903 51.4881 60.8765C51.6447 60.9626 51.8214 61.0053 52 61C52.1795 61 52.3556 60.9516 52.51 60.86C52.7381 60.7247 52.903 60.5044 52.9687 60.2475C53.0343 59.9906 52.9952 59.7181 52.86 59.49L44.77 46H45.94C47.8116 45.9974 49.6058 45.2527 50.9293 43.9293C52.2527 42.6058 52.9974 40.8116 53 38.94V38.94ZM25.31 5.00001H38.69C39.5161 4.99865 40.313 5.30529 40.925 5.86004C41.5371 6.41479 41.9204 7.17779 42 8.00001L39.54 11H24.54L22 8.00001C22.0796 7.17779 22.4629 6.41479 23.075 5.86004C23.687 5.30529 24.4839 4.99865 25.31 5.00001V5.00001ZM13 38.94V15.06C13.0026 13.7188 13.5366 12.4333 14.485 11.485C15.4333 10.5366 16.7188 10.0027 18.06 10H21.06L23.21 12.64C23.3062 12.7555 23.4271 12.8479 23.5639 12.9102C23.7007 12.9725 23.8497 13.0032 24 13H40C40.1494 13.0005 40.297 12.9675 40.432 12.9035C40.567 12.8395 40.6859 12.746 40.78 12.63L42.93 10H45.93C47.2729 10 48.561 10.5328 49.5115 11.4814C50.462 12.4301 50.9974 13.7171 51 15.06V38.94C50.9974 40.2812 50.4634 41.5667 49.515 42.515C48.5667 43.4634 47.2812 43.9974 45.94 44H18.06C16.7188 43.9974 15.4333 43.4634 14.485 42.515C13.5366 41.5667 13.0026 40.2812 13 38.94V38.94ZM16.17 55L19.17 50H44.83L47.83 55H16.17ZM43.63 48H20.37L21.57 46H42.43L43.63 48Z" fill="black"/>
<path d="M22 25H42C43.3261 25 44.5979 24.4732 45.5355 23.5355C46.4732 22.5979 47 21.3261 47 20C47 18.6739 46.4732 17.4021 45.5355 16.4645C44.5979 15.5268 43.3261 15 42 15H22C20.6739 15 19.4021 15.5268 18.4645 16.4645C17.5268 17.4021 17 18.6739 17 20C17 21.3261 17.5268 22.5979 18.4645 23.5355C19.4021 24.4732 20.6739 25 22 25V25ZM22 17H42C42.7956 17 43.5587 17.3161 44.1213 17.8787C44.6839 18.4413 45 19.2044 45 20C45 20.7956 44.6839 21.5587 44.1213 22.1213C43.5587 22.6839 42.7956 23 42 23H22C21.2044 23 20.4413 22.6839 19.8787 22.1213C19.3161 21.5587 19 20.7956 19 20C19 19.2044 19.3161 18.4413 19.8787 17.8787C20.4413 17.3161 21.2044 17 22 17Z" fill="black"/>
<path d="M21 33C20.2089 33 19.4355 33.2346 18.7777 33.6741C18.1199 34.1136 17.6072 34.7384 17.3045 35.4693C17.0017 36.2002 16.9225 37.0044 17.0769 37.7804C17.2312 38.5563 17.6122 39.269 18.1716 39.8284C18.731 40.3878 19.4437 40.7688 20.2196 40.9231C20.9956 41.0775 21.7998 40.9983 22.5307 40.6955C23.2616 40.3928 23.8864 39.8801 24.3259 39.2223C24.7654 38.5645 25 37.7911 25 37C25 35.9391 24.5786 34.9217 23.8284 34.1716C23.0783 33.4214 22.0609 33 21 33ZM21 39C20.6044 39 20.2178 38.8827 19.8889 38.6629C19.56 38.4432 19.3036 38.1308 19.1522 37.7654C19.0009 37.3999 18.9613 36.9978 19.0384 36.6098C19.1156 36.2219 19.3061 35.8655 19.5858 35.5858C19.8655 35.3061 20.2219 35.1156 20.6098 35.0384C20.9978 34.9613 21.3999 35.0009 21.7654 35.1522C22.1308 35.3036 22.4432 35.56 22.6629 35.8889C22.8827 36.2178 23 36.6044 23 37C23 37.5304 22.7893 38.0391 22.4142 38.4142C22.0391 38.7893 21.5304 39 21 39Z" fill="black"/>
<path d="M48 37C48 36.2089 47.7654 35.4355 47.3259 34.7777C46.8864 34.1199 46.2616 33.6072 45.5307 33.3045C44.7998 33.0017 43.9956 32.9225 43.2196 33.0769C42.4437 33.2312 41.731 33.6122 41.1716 34.1716C40.6122 34.731 40.2312 35.4437 40.0769 36.2196C39.9225 36.9956 40.0017 37.7998 40.3045 38.5307C40.6072 39.2616 41.1199 39.8864 41.7777 40.3259C42.4355 40.7654 43.2089 41 44 41C45.0609 41 46.0783 40.5786 46.8284 39.8284C47.5786 39.0783 48 38.0609 48 37ZM44 39C43.6044 39 43.2178 38.8827 42.8889 38.6629C42.56 38.4432 42.3036 38.1308 42.1522 37.7654C42.0009 37.3999 41.9613 36.9978 42.0384 36.6098C42.1156 36.2219 42.3061 35.8655 42.5858 35.5858C42.8655 35.3061 43.2219 35.1156 43.6098 35.0384C43.9978 34.9613 44.3999 35.0009 44.7654 35.1522C45.1308 35.3036 45.4432 35.56 45.6629 35.8889C45.8827 36.2178 46 36.6044 46 37C46 37.5304 45.7893 38.0391 45.4142 38.4142C45.0391 38.7893 44.5304 39 44 39Z" fill="black"/>
</svg>
