<?xml version="1.0" encoding="utf-8"?>
<!-- Generator: Adobe Illustrator 23.0.0, SVG Export Plug-In . SVG Version: 6.00 Build 0)  -->
<svg version="1.1" id="Layer_1" xmlns="http://www.w3.org/2000/svg" xmlns:xlink="http://www.w3.org/1999/xlink" x="0px" y="0px"
	 viewBox="0 0 181.2 233.6" style="enable-background:new 0 0 181.2 233.6;" xml:space="preserve">
<style type="text/css">
	.st0{fill:none;stroke:#51A546;stroke-width:7;stroke-miterlimit:10;}
</style>
<g>
	<path class="st0" d="M133.3,19.4c-2.8,12.1,4.7,24.2,16.8,27c12.1,2.8,24.2-4.7,27-16.8s-4.7-24.2-16.8-27
		C148.2-0.2,136.1,7.3,133.3,19.4z"/>
	<path class="st0" d="M134,94.7c5.7,10.7,17,21.2,35.4,25.4c0.6,0.1,1.2,0.2,1.8,0.2c3.6,0,6.9-2.5,7.8-6.2c1-4.3-1.7-8.6-6-9.6
		c-14.4-3.5-21-10.4-25-17.5c-3.9-7.1-4.6-15-4.6-18.9c0-1.5,0.1-2.3,0.1-2.4l0,0c0.5-4.4-2.7-8.3-7.1-8.8c-4.4-0.5-8.3,2.7-8.8,7.1
		c0,0.2-0.2,1.7-0.2,4.1C127.4,73.6,128.2,84,134,94.7z"/>
	<path class="st0" d="M55.7,231.6c6.6,0,12-5.4,12-12c0-2.7-0.9-5.2-2.4-7.2l21.9-52.1c1.7-4.1-0.2-8.8-4.3-10.5l-3.2-1.4l10.5-25.1
		c0.1,0,0.2,0,0.3,0c3.8,0,7.2-2.7,7.9-6.6c2.3-13.5,7.3-23.6,13-31.4c-1.9,10.8-1.9,21.2-0.3,35.3c1.5,7.9,5,12.3,9.2,14.8
		c0.7,4.2,1.3,9.4,1.3,15.1c0,8.8-1.3,18.7-5.3,28.6c-4,9.9-10.5,19.9-21.7,29.1c-5.3,4.4-6.1,12.3-1.7,17.6s12.3,6.1,17.6,1.7
		c14.4-11.8,23.7-25.6,29-39.1c1.8-4.6,3.2-9.1,4.3-13.5c3.8,12.2,6.9,26.8,8.3,43.9c0.5,6.6,6,11.5,12.5,11.5c0.3,0,0.6,0,1,0
		c6.9-0.5,12-6.5,11.5-13.4c-3.7-47.5-20-79-30.1-94.2c-0.4-3.5-0.6-7.2-0.5-10.8c-7.5-5.6-11.8-11.9-14.2-16.3
		c-4.4-8.1-6.7-17.6-6.8-27.5c0-2.5,0.2-4.1,0.2-4.3c0.6-5.1,4.8-8.9,9.9-8.9c0.4,0,0.7,0,1.1,0.1c5.5,0.6,9.4,5.6,8.8,11
		c0,0-0.1,0.8-0.1,2.2c0,2.3,0.3,10.1,4.1,17.4c0.6-3.4,1.3-6.6,1.9-9.6c0.5,4.6,0.7,9.2,0.7,13.8c2,2.7,4.7,5.5,8.8,7.9
		c-1.5-13.6-5.4-32.5-9.1-40.2c-1.6-4.6-4.7-8.3-9.1-9.4c-4.9-1.2-11.1-0.2-16.4,3.6c-4.1,2.2-9.5,5.6-15.3,10.6
		c-11.5,10-24.1,26.6-28.5,51.8c-0.4,2.5,0.3,4.9,1.9,6.6L73.9,146l-35.2-14.8c-4.1-1.7-8.8,0.2-10.5,4.3L2.6,196.3
		c-1.7,4.1,0.2,8.8,4.3,10.5l37.2,15.7C45.4,227.7,50.1,231.6,55.7,231.6z M55.7,225.6c-3.3,0-6-2.7-6-6s2.7-6,6-6s6,2.7,6,6
		C61.7,222.9,59.1,225.6,55.7,225.6z"/>
</g>
</svg>
