<svg width="50" height="50" viewBox="0 0 50 50" fill="none" xmlns="http://www.w3.org/2000/svg">
<path d="M45.04 11.5431C45.593 10.7481 46.027 9.86705 46.322 8.92705L47.113 6.40405L44.85 7.77205C43.447 8.62105 41.936 9.24005 40.353 9.61505C38.198 7.54505 35.207 6.62805 32.225 7.14505C28.226 7.84505 25.073 11.1921 24.557 15.2841C24.465 16.0121 24.45 16.7331 24.511 17.4421C18.522 16.8001 12.973 13.7491 9.136 8.94705L8.217 7.79705L7.487 9.07505C6.655 10.5301 6.216 12.1941 6.216 13.8861C6.216 15.7891 6.766 17.6131 7.761 19.1541C7.72 19.1331 7.681 19.1101 7.641 19.0881L6.169 18.2541L6.148 19.9461C6.111 22.9651 7.462 25.7241 9.645 27.5231L8.64 27.3291L9.142 28.9301C10.097 31.9701 12.447 34.2651 15.342 35.1701C12.432 36.8561 9.014 37.5601 5.619 37.1511L1.376 36.6411L4.952 38.9811C8.972 41.6101 13.62 43.0001 18.394 43.0001C34.001 43.0001 43.327 30.0741 43.327 17.5781C43.327 17.3681 43.325 17.1591 43.32 16.9511C44.884 15.7261 46.234 14.2561 47.337 12.5721L49.223 9.69205L46.088 11.1131C45.743 11.2701 45.394 11.4131 45.04 11.5431ZM41.71 15.6621L41.28 15.9781L41.303 16.5111C41.319 16.8651 41.326 17.2201 41.326 17.5771C41.327 32.2391 29.667 41.0001 18.394 41.0001C15.313 41.0001 12.289 40.3691 9.481 39.1561C12.802 38.7901 15.915 37.5001 18.577 35.3701L20.739 33.6411L17.971 33.5891C15.327 33.5401 12.953 32.0621 11.676 29.7821C11.676 29.7821 11.677 29.7821 11.678 29.7821C12.521 29.7821 13.357 29.6691 14.162 29.4451L18.154 28.3341L14.095 27.5021C11.123 26.8931 8.867 24.5041 8.291 21.5551C9.141 21.8391 10.03 22.0011 10.925 22.0301L14.363 22.1421L11.521 20.2041C9.451 18.7931 8.215 16.4311 8.215 13.8861C8.215 13.0431 8.352 12.2091 8.617 11.4201C13.025 16.2691 19.144 19.2051 25.64 19.5381L26.96 19.6051L26.666 18.3161C26.462 17.4221 26.419 16.4861 26.54 15.5341C26.947 12.3051 29.426 9.66605 32.569 9.11605C35.068 8.67705 37.578 9.52705 39.289 11.3871L39.67 11.8011L40.222 11.6911C41.185 11.4981 42.125 11.2251 43.037 10.8771C42.507 11.5231 41.869 12.0821 41.146 12.5231L37.217 14.9251L41.788 14.3691C42.389 14.2961 42.984 14.1921 43.57 14.0581C42.994 14.6401 42.372 15.1751 41.71 15.6621Z" fill="#00ACEE"/>
</svg>
