<?xml version="1.0" encoding="utf-8"?>
<!-- Generator: Adobe Illustrator 23.0.0, SVG Export Plug-In . SVG Version: 6.00 Build 0)  -->
<svg version="1.1" id="Layer_1" xmlns="http://www.w3.org/2000/svg" xmlns:xlink="http://www.w3.org/1999/xlink" x="0px" y="0px"
	 viewBox="0 0 37.4 38.9" style="enable-background:new 0 0 37.4 38.9;" xml:space="preserve">
<path d="M25.1,21.4c3.2-2.1,5.2-5.7,5.2-9.7C30.4,5.2,25.1,0,18.7,0S7,5.2,7,11.7c0,4.1,2.1,7.6,5.2,9.7C5.1,24,0,30.9,0,38.9h3.1
	c0-8.6,7-15.6,15.6-15.6c8.6,0,15.6,7,15.6,15.6h3.1C37.4,30.9,32.3,24,25.1,21.4z M18.7,20.2c-4.7,0-8.6-3.8-8.6-8.6
	s3.8-8.6,8.6-8.6s8.6,3.8,8.6,8.6S23.4,20.2,18.7,20.2z"/>
</svg>
