<svg width="64" height="64" viewBox="0 0 64 64" fill="none" xmlns="http://www.w3.org/2000/svg">
<path d="M5.08 42.178C8.44378 43.9868 12.196 44.9531 16.015 44.994C17.3521 44.9925 18.6862 44.8667 20 44.618V51.39C20.0005 51.758 20.1014 52.119 20.2917 52.434C20.4819 52.749 20.7545 53.0062 21.08 53.178C24.4386 54.9862 28.1858 55.9522 32 55.993C35.8131 55.9524 39.5594 54.9867 42.917 53.179C43.2432 53.0076 43.5165 52.7504 43.7073 52.4351C43.8982 52.1199 43.9994 51.7585 44 51.39V44.618C45.3138 44.8667 46.6479 44.9925 47.985 44.994C51.803 44.9533 55.5542 43.9873 58.917 42.179C59.2432 42.0076 59.5165 41.7504 59.7073 41.4351C59.8982 41.1199 59.9994 40.7585 60 40.39V32.41C60.0004 31.504 59.7774 30.6119 59.3508 29.8127C58.9241 29.0135 58.307 28.3318 57.554 27.828L54.188 25.589C55.3829 23.8065 56.0142 21.7059 56 19.56C56 14.289 52.411 10 48 10C43.589 10 40 14.289 40 19.56C39.9858 21.7059 40.6171 23.8065 41.812 25.589L39.465 27.15C38.312 23.56 35.405 21 32 21C28.595 21 25.688 23.56 24.535 27.15L22.188 25.589C23.3829 23.8065 24.0142 21.7059 24 19.56C24 14.289 20.411 10 16 10C11.589 10 8 14.289 8 19.56C7.98576 21.7059 8.61709 23.8065 9.812 25.589L6.442 27.83C5.69004 28.3341 5.07386 29.0156 4.64794 29.8145C4.22202 30.6133 3.99948 31.5047 4 32.41V40.39C4.00054 40.758 4.10138 41.119 4.29166 41.434C4.48195 41.749 4.75449 42.0062 5.08 42.178V42.178ZM42 51.4C38.9383 53.0923 35.4968 53.9791 31.9984 53.977C28.5001 53.9749 25.0597 53.084 22 51.388V43.41C21.9998 42.8336 22.1414 42.266 22.4124 41.7573C22.6834 41.2486 23.0755 40.8144 23.554 40.493L27.124 38.118C28.4259 39.3947 30.1766 40.1099 32 40.1099C33.8234 40.1099 35.5741 39.3947 36.876 38.118L40.442 40.49C40.9215 40.8114 41.3145 41.2459 41.5862 41.7552C41.8579 42.2644 42 42.8328 42 43.41V51.4ZM48 12C51.309 12 54 15.392 54 19.56C54.0403 21.6812 53.2748 23.7388 51.858 25.318C51.3835 25.8799 50.792 26.3314 50.1249 26.641C49.4578 26.9505 48.7311 27.1105 47.9956 27.11C47.2602 27.1094 46.5337 26.9482 45.867 26.6376C45.2004 26.3271 44.6096 25.8747 44.136 25.312C42.7225 23.7336 41.9593 21.6784 42 19.56C42 15.392 44.691 12 48 12ZM43.124 27.118C44.4259 28.3947 46.1766 29.1099 48 29.1099C49.8234 29.1099 51.5741 28.3947 52.876 27.118L56.442 29.49C56.9215 29.8114 57.3145 30.2459 57.5862 30.7552C57.8579 31.2644 58 31.8328 58 32.41V40.4C53.7094 42.7575 48.7216 43.5165 43.924 42.542C43.8062 41.7928 43.5349 41.076 43.127 40.4365C42.7192 39.7971 42.1837 39.2488 41.554 38.826L38.188 36.587C39.3825 34.8051 40.0138 32.7052 40 30.56C39.9974 30.1227 39.9694 29.686 39.916 29.252L43.124 27.118ZM32 23C35.309 23 38 26.392 38 30.56C38.0403 32.6812 37.2748 34.7388 35.858 36.318C35.3835 36.8799 34.792 37.3314 34.1249 37.641C33.4578 37.9505 32.7311 38.1105 31.9956 38.11C31.2602 38.1094 30.5337 37.9482 29.867 37.6376C29.2004 37.3271 28.6096 36.8747 28.136 36.312C26.7225 34.7336 25.9593 32.6784 26 30.56C26 26.392 28.691 23 32 23ZM16 12C19.309 12 22 15.392 22 19.56C22.0403 21.6812 21.2748 23.7388 19.858 25.318C19.3741 25.8676 18.7813 26.3107 18.1172 26.6192C17.4531 26.9277 16.7321 27.0948 16 27.11C15.2663 27.0942 14.544 26.926 13.8788 26.6162C13.2136 26.3063 12.6201 25.8615 12.136 25.31C10.723 23.7321 9.95983 21.6777 10 19.56C10 15.392 12.691 12 16 12ZM6 32.41C5.99976 31.8336 6.1414 31.266 6.41241 30.7573C6.68343 30.2485 7.07549 29.8144 7.554 29.493L11.124 27.118C12.4375 28.377 14.1807 29.0892 16 29.11C17.8195 29.09 19.563 28.3777 20.876 27.118L24.084 29.252C24.0306 29.686 24.0026 30.1227 24 30.56C23.9858 32.7059 24.6171 34.8065 25.812 36.589L22.442 38.83C21.8135 39.2532 21.279 39.8014 20.8719 40.4404C20.4648 41.0794 20.1939 41.7955 20.076 42.544C15.2771 43.5202 10.2874 42.7566 6 40.39V32.41Z" fill="#3BBC2A"/>
</svg>
