<?xml version="1.0" encoding="UTF-8" standalone="no"?> <svg width="64" height="64" viewBox="0 0 64 64" fill="none" xmlns="http://www.w3.org/2000/svg">
<path d="M52 53.44V45.81C52.788 46.2697 53.688 46.5016 54.6 46.48H54.75C56.4443 46.3932 58.077 45.8166 59.45 44.82C62.56 42.64 62.5 37.48 62.5 37.26C62.4944 37.0623 62.4307 36.8706 62.3169 36.7088C62.2031 36.5469 62.0442 36.4222 61.86 36.35C59.8423 35.5957 57.6564 35.4089 55.54 35.81C55.847 34.8466 56.0022 33.8412 56 32.83C56 29.03 51.74 26.12 51.56 26C51.3931 25.8924 51.1986 25.8351 51 25.8351C50.8013 25.8351 50.6069 25.8924 50.44 26C50.26 26.12 46 29.03 46 32.83C45.9978 33.8412 46.153 34.8466 46.46 35.81C44.3436 35.4089 42.1577 35.5957 40.14 36.35C39.9558 36.4222 39.7969 36.5469 39.6831 36.7088C39.5693 36.8706 39.5056 37.0623 39.5 37.26C39.5 37.48 39.44 42.64 42.55 44.82C43.923 45.8166 45.5557 46.3932 47.25 46.48H47.4C48.312 46.5016 49.212 46.2697 50 45.81V52.91C44.4179 51.6684 38.7184 51.0314 33 51.01V32.81C33.788 33.2697 34.688 33.5016 35.6 33.48H35.75C37.4443 33.3932 39.077 32.8166 40.45 31.82C43.56 29.64 43.5 24.48 43.5 24.26C43.4944 24.0623 43.4307 23.8706 43.3169 23.7088C43.2031 23.5469 43.0442 23.4222 42.86 23.35C40.8423 22.5957 38.6564 22.4089 36.54 22.81C36.847 21.8466 37.0022 20.8412 37 19.83C37 16.03 32.74 13.12 32.56 13C32.3931 12.8924 32.1986 12.8351 32 12.8351C31.8013 12.8351 31.6069 12.8924 31.44 13C31.26 13.12 27 16.03 27 19.83C26.9978 20.8412 27.153 21.8466 27.46 22.81C25.3436 22.4089 23.1577 22.5957 21.14 23.35C20.9558 23.4222 20.7969 23.5469 20.6831 23.7088C20.5693 23.8706 20.5056 24.0623 20.5 24.26C20.5 24.48 20.44 29.64 23.55 31.82C24.923 32.8166 26.5557 33.3932 28.25 33.48H28.4C29.312 33.5016 30.212 33.2697 31 32.81V51.01C25.2816 51.0314 19.582 51.6684 14 52.91V44.81C14.788 45.2697 15.688 45.5016 16.6 45.48H16.75C18.4443 45.3932 20.077 44.8166 21.45 43.82C24.56 41.64 24.5 36.48 24.5 36.26C24.4944 36.0623 24.4307 35.8706 24.3169 35.7088C24.2031 35.5469 24.0442 35.4222 23.86 35.35C21.8423 34.5957 19.6564 34.4089 17.54 34.81C17.847 33.8466 18.0022 32.8412 18 31.83C18 28.03 13.74 25.12 13.56 25C13.3931 24.8924 13.1986 24.8351 13 24.8351C12.8013 24.8351 12.6069 24.8924 12.44 25C12.26 25.12 7.99999 28.03 7.99999 31.83C7.9978 32.8412 8.15299 33.8466 8.45999 34.81C6.34357 34.4089 4.15768 34.5957 2.13999 35.35C1.95579 35.4222 1.79688 35.5469 1.68308 35.7088C1.56927 35.8706 1.5056 36.0623 1.49999 36.26C1.49999 36.48 1.43999 41.64 4.54999 43.82C5.92299 44.8166 7.55569 45.3932 9.24999 45.48H9.39999C10.312 45.5016 11.212 45.2697 12 44.81V53.44C6.06999 55.12 1.99999 57.67 1.99999 61C1.99999 61.2653 2.10535 61.5196 2.29288 61.7072C2.48042 61.8947 2.73477 62 2.99999 62H61C61.2652 62 61.5196 61.8947 61.7071 61.7072C61.8946 61.5196 62 61.2653 62 61C62 57.67 57.93 55.12 52 53.44ZM54.86 38.27C56.55 37.09 59.23 37.65 60.47 38C60.38 39.29 59.99 42 58.3 43.18C57.2543 43.9515 56.0072 44.4031 54.71 44.48C54.2958 44.5196 53.8781 44.4595 53.4919 44.3047C53.1057 44.1498 52.7622 43.9048 52.49 43.59C51.55 42.26 52.64 39.82 54.86 38.27V38.27ZM49.51 43.59C49.2363 43.9029 48.8926 44.1466 48.5067 44.3013C48.1209 44.456 47.704 44.5172 47.29 44.48C45.9928 44.4031 44.7457 43.9515 43.7 43.18C42.01 42 41.62 39.28 41.53 38C42.97 37.58 45.56 37.16 47.14 38.27C49.36 39.82 50.45 42.26 49.51 43.59V43.59ZM48 32.83C48 30.77 50 28.9 51 28.09C52 28.9 54 30.77 54 32.83C54 35.54 52.63 37.83 51 37.83C49.37 37.83 48 35.54 48 32.83ZM35.86 25.27C37.55 24.09 40.23 24.65 41.47 25C41.38 26.29 40.99 29 39.3 30.18C38.2543 30.9515 37.0072 31.4031 35.71 31.48C35.2957 31.5202 34.8779 31.4603 34.4916 31.3055C34.1053 31.1506 33.7618 30.9052 33.49 30.59C32.55 29.26 33.64 26.82 35.86 25.27ZM30.51 30.59C30.2368 30.9036 29.8932 31.1477 29.5072 31.3025C29.1212 31.4572 28.7041 31.5181 28.29 31.48C26.9928 31.4031 25.7457 30.9515 24.7 30.18C23.01 29 22.62 26.28 22.53 25C23.97 24.58 26.56 24.16 28.14 25.27C30.36 26.82 31.45 29.26 30.51 30.59V30.59ZM29 19.83C29 17.77 31 15.9 32 15.09C33 15.9 35 17.77 35 19.83C35 22.54 33.63 24.83 32 24.83C30.37 24.83 29 22.54 29 19.83ZM16.86 37.27C18.55 36.09 21.23 36.65 22.47 37C22.38 38.29 21.99 41 20.3 42.18C19.2543 42.9515 18.0072 43.4031 16.71 43.48C16.2957 43.5202 15.8779 43.4603 15.4916 43.3055C15.1053 43.1506 14.7618 42.9052 14.49 42.59C13.55 41.26 14.64 38.82 16.86 37.27ZM11.51 42.59C11.2368 42.9036 10.8932 43.1477 10.5072 43.3025C10.1212 43.4572 9.70406 43.5181 9.28999 43.48C7.99277 43.4031 6.74571 42.9515 5.69999 42.18C4.00999 41 3.61999 38.28 3.52999 37C4.96999 36.58 7.55999 36.16 9.13999 37.27C11.36 38.82 12.45 41.26 11.51 42.59ZM9.99999 31.83C9.99999 29.77 12 27.9 13 27.09C14 27.9 16 29.77 16 31.83C16 34.54 14.63 36.83 13 36.83C11.37 36.83 9.99999 34.54 9.99999 31.83ZM4.25999 60C6.04999 56.51 16.94 53 32 53C47.06 53 57.95 56.51 59.74 60H4.25999Z" fill="black"/>
<path d="M51 20C52.3845 20 53.7378 19.5895 54.889 18.8203C56.0401 18.0511 56.9373 16.9579 57.4672 15.6788C57.997 14.3997 58.1356 12.9922 57.8655 11.6344C57.5954 10.2765 56.9287 9.02922 55.9497 8.05026C54.9708 7.07129 53.7235 6.4046 52.3656 6.13451C51.0078 5.86441 49.6003 6.00303 48.3212 6.53285C47.0421 7.06266 45.9489 7.95987 45.1797 9.11101C44.4105 10.2622 44 11.6155 44 13C44.0024 14.8558 44.7406 16.6349 46.0529 17.9471C47.3651 19.2594 49.1442 19.9976 51 20V20ZM51 8C51.9889 8 52.9556 8.29325 53.7779 8.84266C54.6001 9.39206 55.241 10.173 55.6194 11.0866C55.9978 12.0002 56.0969 13.0055 55.9039 13.9755C55.711 14.9454 55.2348 15.8363 54.5355 16.5355C53.8363 17.2348 52.9454 17.711 51.9755 17.9039C51.0055 18.0969 50.0002 17.9978 49.0866 17.6194C48.173 17.241 47.3921 16.6001 46.8427 15.7779C46.2932 14.9556 46 13.9889 46 13C46.0016 11.6744 46.5289 10.4036 47.4662 9.46622C48.4036 8.52889 49.6744 8.00159 51 8V8Z" fill="black"/>
<path d="M52 2H50V4H52V2Z" fill="black"/>
<path d="M58.0708 4.51486L56.6566 5.92908L58.0708 7.34329L59.485 5.92908L58.0708 4.51486Z" fill="black"/>
<path d="M62 12H60V14H62V12Z" fill="black"/>
<path d="M58.0707 18.6567L56.6565 20.0709L58.0707 21.4851L59.485 20.0709L58.0707 18.6567Z" fill="black"/>
<path d="M52 22H50V24H52V22Z" fill="black"/>
<path d="M43.9288 18.6566L42.5146 20.0708L43.9288 21.485L45.343 20.0708L43.9288 18.6566Z" fill="black"/>
<path d="M42 12H40V14H42V12Z" fill="black"/>
<path d="M43.9289 4.51474L42.5147 5.92896L43.9289 7.34317L45.3431 5.92896L43.9289 4.51474Z" fill="black"/>
<path d="M21 6C21 4.93913 20.5786 3.92172 19.8284 3.17157C19.0783 2.42143 18.0609 2 17 2V4C17.5304 4 18.0391 4.21071 18.4142 4.58579C18.7893 4.96086 19 5.46957 19 6C19 6.53043 18.7893 7.03914 18.4142 7.41421C18.0391 7.78929 17.5304 8 17 8H2V10H17C18.0609 10 19.0783 9.57857 19.8284 8.82843C20.5786 8.07828 21 7.06087 21 6Z" fill="black"/>
<path d="M28 10C28 8.93913 27.5786 7.92172 26.8284 7.17157C26.0783 6.42143 25.0609 6 24 6V8C24.5304 8 25.0391 8.21071 25.4142 8.58579C25.7893 8.96086 26 9.46957 26 10C26 10.5304 25.7893 11.0391 25.4142 11.4142C25.0391 11.7893 24.5304 12 24 12H2V14H24C25.0609 14 26.0783 13.5786 26.8284 12.8284C27.5786 12.0783 28 11.0609 28 10Z" fill="black"/>
<path d="M16 20C16 20.5304 15.7893 21.0391 15.4142 21.4142C15.0391 21.7893 14.5304 22 14 22V24C15.0609 24 16.0783 23.5786 16.8284 22.8284C17.5786 22.0783 18 21.0609 18 20C18 18.9391 17.5786 17.9217 16.8284 17.1716C16.0783 16.4214 15.0609 16 14 16H2V18H14C14.5304 18 15.0391 18.2107 15.4142 18.5858C15.7893 18.9609 16 19.4696 16 20Z" fill="black"/>
<path d="M14 4H2V6H14V4Z" fill="black"/>
</svg>
