<?xml version="1.0" encoding="UTF-8" standalone="no"?> <svg height="584pt" viewBox="-75 -18 584 584.00049" width="584pt" xmlns="http://www.w3.org/2000/svg"><path d="m40.472656 500.261719v10.996093c0 6.214844 5.035156 11.246094 11.246094 11.246094 6.214844 0 11.25-5.03125 11.25-11.246094v-8.601562h103c1.289062 14.570312 10.792969 27.121094 24.46875 32.308594v1.285156c0 5.988281 4.6875 10.921875 10.664062 11.234375 5.976563.3125 11.148438-4.109375 11.773438-10.0625h167.585938c.636718 5.941406 5.804687 10.351563 11.769531 10.039063 5.972656-.3125 10.652343-5.234376 10.664062-11.210938v-.523438c15.933594-4.953124 26.796875-19.683593 26.820313-36.371093v-106.621094c-.03125-21.011719-17.058594-38.039063-38.070313-38.066406h-148.039062v-138.199219c-.039063-33.804688-27.429688-61.199219-61.234375-61.238281h-13.75v-143.984375c0-6.207032-5.03125-11.246094-11.246094-11.246094h-74.984375c-6.207031 0-11.246094 5.039062-11.246094 11.246094v143.984375h-13.746093c-33.808594.039062-61.199219 27.433593-61.238282 61.238281v224.949219c.039063 27.289062 18.097656 51.269531 44.3125 58.84375zm125.34375-77.003907h-88.425781v-28.328124h88.425781zm225.828125 91.671876h-187.761719c-8.597656-.011719-15.5625-6.976563-15.570312-15.574219v-66.832031h218.90625v66.832031c-.007812 8.59375-6.976562 15.5625-15.574219 15.574219zm15.578125-122.195313v17.292969h-218.910156v-17.292969c.007812-8.597656 6.972656-15.558594 15.570312-15.570313h187.761719c8.597657.011719 15.558594 6.976563 15.574219 15.570313zm-313.582031-370.238281h52.488281v132.734375h-52.488281zm0 155.230468h52.488281v22.230469h-52.488281zm-74.984375 38.742188c.023438-21.386719 17.351562-38.71875 38.742188-38.742188h13.746093v33.476563c0 6.210937 5.039063 11.25 11.246094 11.25h74.984375c6.214844 0 11.246094-5.039063 11.246094-11.25v-33.476563h13.75c21.386718.023438 38.714844 17.355469 38.742187 38.742188v138.199219h-17.230469c-13.066406.007812-25.21875 6.714843-32.1875 17.765625h-105.550781c-6.210937 0-11.246093 5.039062-11.246093 11.25v50.824218c0 6.207032 5.035156 11.246094 11.246093 11.246094h99.671875v34.40625h-108.417968c-21.390626-.023437-38.71875-17.355468-38.742188-38.742187zm0 0"/><path d="m97.808594 320.78125h44.15625c20.242187 0 36.65625-16.414062 36.65625-36.65625 0-20.25-16.414063-36.664062-36.65625-36.664062h-44.15625c-20.25 0-36.664063 16.414062-36.664063 36.664062 0 20.242188 16.414063 36.65625 36.664063 36.65625zm0-50.824219h44.15625c7.820312 0 14.160156 6.339844 14.160156 14.167969 0 7.820312-6.339844 14.160156-14.160156 14.160156h-44.15625c-7.824219 0-14.167969-6.339844-14.167969-14.160156 0-7.828125 6.34375-14.167969 14.167969-14.167969zm0 0"/><path d="m252.984375 332.941406v21.460938h22.496094v-10.214844h44.554687v10.214844h22.496094v-21.460938c0-6.210937-5.035156-11.246094-11.25-11.246094h-67.050781c-6.207031 0-11.246094 5.035157-11.246094 11.246094zm0 0"/></svg>