<?xml version="1.0" encoding="utf-8"?>
<!-- Generator: Adobe Illustrator 16.0.0, SVG Export Plug-In . SVG Version: 6.00 Build 0)  -->
<!DOCTYPE svg PUBLIC "-//W3C//DTD SVG 1.0//EN" "http://www.w3.org/TR/2001/REC-SVG-20010904/DTD/svg10.dtd">
<svg version="1.0" id="Layer_1" xmlns="http://www.w3.org/2000/svg" xmlns:xlink="http://www.w3.org/1999/xlink" x="0px" y="0px"
	 width="100px" height="100px" viewBox="0 0 100 100" enable-background="new 0 0 100 100" xml:space="preserve">
<path d="M55.963,82.19c-3.066,1.537-8.86,1.537-11.925,0L10,65.173v7.454l31.056,15.527c4.921,2.461,12.967,2.461,17.889,0
	L90,72.627v-7.454L55.963,82.19z"/>
<path d="M63.332,70.833c0,1.843-1.49,3.334-3.332,3.334c-1.844,0-3.334-1.491-3.334-3.334c0-1.842,1.49-3.333,3.334-3.333
	C61.842,67.5,63.332,68.991,63.332,70.833z"/>
<path d="M76.666,64.167c0,1.842-1.49,3.333-3.334,3.333C71.49,67.5,70,66.009,70,64.167c0-1.843,1.49-3.334,3.332-3.334
	C75.176,60.833,76.666,62.324,76.666,64.167z"/>
<circle cx="86.666" cy="57.5" r="3.334"/>
<circle cx="13.333" cy="57.5" r="3.333"/>
<circle cx="26.667" cy="64.167" r="3.333"/>
<circle cx="40" cy="70.833" r="3.333"/>
<path d="M90,23.332v-7.455L78.242,10H61.666v42.673l-5.703,2.852c-0.742,0.371-1.646,0.647-2.631,0.84V10h-6.666v46.364
	c-0.982-0.192-1.888-0.469-2.629-0.84l-5.704-2.852V10h-6.667v39.34l-8.333-4.168V10h-6.667v31.84L10,38.506v7.455l31.056,15.526
	c4.921,2.461,12.967,2.461,17.889,0L90,45.961v-7.455l-6.668,3.334V20L90,23.332z M76.666,45.172l-8.334,4.168V12.502l8.334,4.164
	V45.172z"/>
</svg>
