<svg width="439" height="439" viewBox="0 0 439 439" fill="none" xmlns="http://www.w3.org/2000/svg">
<g clip-path="url(#clip0_232_21)">
<path d="M417.689 75.654C415.978 73.945 413.788 73.086 411.126 73.086H322.902L302.917 25.41C300.063 18.366 294.923 12.37 287.504 7.421C280.078 2.473 272.556 0 264.945 0H173.582C165.971 0 158.451 2.473 151.028 7.421C143.604 12.37 138.465 18.365 135.609 25.41L115.624 73.086H27.404C24.737 73.086 22.551 73.945 20.837 75.654C19.128 77.367 18.269 79.557 18.269 82.221V100.495C18.269 103.159 19.124 105.349 20.837 107.059C22.551 108.771 24.741 109.627 27.404 109.627H54.81V381.427C54.81 397.23 59.283 410.693 68.228 421.825C77.175 432.964 87.929 438.528 100.492 438.528H338.034C350.6 438.528 361.353 432.772 370.299 421.26C379.244 409.74 383.714 396.086 383.714 380.289V109.627H411.125C413.787 109.627 415.978 108.771 417.688 107.059C419.396 105.35 420.258 103.159 420.258 100.495V82.221C420.26 79.557 419.397 77.367 417.689 75.654ZM169.301 39.678C170.632 37.966 172.251 36.916 174.154 36.538H264.658C266.561 36.919 268.183 37.968 269.512 39.678L283.221 73.082H155.311L169.301 39.678ZM347.173 380.291C347.173 384.477 346.509 388.333 345.174 391.852C343.84 395.37 342.457 397.94 341.033 399.558C339.602 401.18 338.61 401.985 338.035 401.985H100.493C99.922 401.985 98.928 401.18 97.497 399.558C96.068 397.94 94.687 395.37 93.354 391.852C92.023 388.333 91.357 384.473 91.357 380.291V109.627H347.172V380.291H347.173Z" fill="#F70505"/>
<path d="M137.04 347.172H155.311C157.978 347.172 160.169 346.317 161.878 344.605C163.587 342.887 164.446 340.704 164.446 338.035V173.581C164.446 170.918 163.587 168.728 161.878 167.014C160.164 165.305 157.979 164.449 155.311 164.449H137.04C134.373 164.449 132.186 165.304 130.473 167.014C128.762 168.728 127.905 170.918 127.905 173.581V338.035C127.905 340.704 128.759 342.888 130.473 344.605C132.186 346.316 134.373 347.172 137.04 347.172Z" fill="#F70505"/>
<path d="M210.129 347.172H228.4C231.066 347.172 233.256 346.317 234.964 344.605C236.682 342.887 237.533 340.704 237.533 338.035V173.581C237.533 170.918 236.681 168.728 234.964 167.014C233.256 165.305 231.066 164.449 228.4 164.449H210.129C207.465 164.449 205.275 165.304 203.562 167.014C201.848 168.728 200.994 170.918 200.994 173.581V338.035C200.994 340.704 201.848 342.888 203.562 344.605C205.274 346.316 207.465 347.172 210.129 347.172Z" fill="#F70505"/>
<path d="M283.22 347.172H301.488C304.157 347.172 306.347 346.317 308.058 344.605C309.769 342.887 310.62 340.704 310.62 338.035V173.581C310.62 170.918 309.768 168.728 308.058 167.014C306.347 165.305 304.157 164.449 301.488 164.449H283.22C280.55 164.449 278.367 165.304 276.649 167.014C274.938 168.728 274.083 170.918 274.083 173.581V338.035C274.083 340.704 274.938 342.888 276.649 344.605C278.367 346.316 280.55 347.172 283.22 347.172Z" fill="#F70505"/>
</g>
<defs>
<clipPath id="clip0_232_21">
<rect width="438.529" height="438.529" fill="white"/>
</clipPath>
</defs>
</svg>
