<svg width="187" height="187" viewBox="0 0 187 187" fill="none" xmlns="http://www.w3.org/2000/svg">
<path d="M118.3 76C111.2 83.2 103.8 90.1 97 97.5C93.9 100.8 92.1 100.5 89.5 97.3C87.2 94.5 84.3 92 81.6 89.5C79.7 87.8 77.4 87.7 75.3 88.9C73.7 89.8 72.6 91.4 72.6 93.5C72.6 96.9 89.9 114.4 93.3 114.4C95.8 114.3 97.4 112.7 99 111.1C108 102.1 117 93 126.1 84C128.9 81.2 131.3 78.1 127.8 74.5C124.2 70.8 121.1 73.2 118.3 76Z" fill="#3BBC2A"/>
<path d="M167 43.2C166.9 38.7 163.8 37.4 159.8 37.4C139.1 37.1 120.6 31 105.3 16.5C102.4 13.8 99.4 13.8 96.6 16.5C81.3 31 62.8 37.1 42 37.3C36.7 37.4 34.7 40.1 34.7 45.1C34.8 52.3 34.7 59.5 34.7 66.7C34.5 66.7 34.3 66.7 34.1 66.7C34.5 74.5 34.8 82.3 35.4 90.1C38.5 130 58.4 157.3 96.2 171.2C98.5 172 100.7 173.1 103.3 172.1C131.4 161.8 152.8 144.7 161.6 114.9C168.8 91.4 167.7 67.3 167 43.2ZM156.4 53.4C156.1 58.5 156.3 63.7 156.3 68.8C156 88.6 155.3 108.3 145.3 126.2C135.8 143.2 120.8 153.4 103.1 160.4C100.8 161.3 99.2 160.4 97.3 159.7C66 147.5 49.5 124.3 46.6 91.1C45.5 78.4 45.6 65.6 45.6 52.9C45.6 49.1 47 48 50.6 47.8C68.3 46.8 84.3 41.1 98.1 29.8C100.2 28 101.7 27.9 103.8 29.7C117.6 41.1 133.6 46.8 151.3 47.8C155.5 47.9 156.6 49.6 156.4 53.4Z" fill="#3BBC2A"/>
</svg>
